<mxfile host="app.diagrams.net" agent="Mozilla/5.0 (Macintosh; Intel Mac OS X 10_15_7) AppleWebKit/537.36 (KHTML, like Gecko) Chrome/135.0.0.0 Safari/537.36" version="26.2.14">
  <diagram name="Page-1" id="u8MaMi5cdq2Xx_QMvfz3">
    <mxGraphModel>
      <root>
        <mxCell id="0" />
        <mxCell id="1" parent="0" />
        <mxCell id="2" value="UserActions" style="whiteSpace=wrap;strokeWidth=2;" vertex="1" parent="1">
          <mxGeometry x="624" y="514" width="767" height="231" as="geometry" />
        </mxCell>
        <mxCell id="3" value="User" style="whiteSpace=wrap;strokeWidth=2;" vertex="1" parent="1">
          <mxGeometry x="352" y="8" width="92" height="54" as="geometry" />
        </mxCell>
        <mxCell id="4" value="Profile" style="whiteSpace=wrap;strokeWidth=2;" vertex="1" parent="1">
          <mxGeometry x="33" y="135" width="107" height="54" as="geometry" />
        </mxCell>
        <mxCell id="5" value="Authentication" style="whiteSpace=wrap;strokeWidth=2;" vertex="1" parent="1">
          <mxGeometry x="863" y="135" width="166" height="54" as="geometry" />
        </mxCell>
        <mxCell id="6" value="Post" style="whiteSpace=wrap;strokeWidth=2;" vertex="1" parent="1">
          <mxGeometry x="523" y="135" width="90" height="54" as="geometry" />
        </mxCell>
        <mxCell id="7" value="ProfileDetails" style="whiteSpace=wrap;strokeWidth=2;" vertex="1" parent="1">
          <mxGeometry x="8" y="261" width="156" height="54" as="geometry" />
        </mxCell>
        <mxCell id="8" value="User" style="whiteSpace=wrap;strokeWidth=2;" vertex="1" parent="1">
          <mxGeometry x="214" y="261" width="92" height="54" as="geometry" />
        </mxCell>
        <mxCell id="9" value="Comment" style="whiteSpace=wrap;strokeWidth=2;" vertex="1" parent="1">
          <mxGeometry x="356" y="261" width="129" height="54" as="geometry" />
        </mxCell>
        <mxCell id="10" value="Category" style="whiteSpace=wrap;strokeWidth=2;" vertex="1" parent="1">
          <mxGeometry x="551" y="261" width="124" height="54" as="geometry" />
        </mxCell>
        <mxCell id="11" value="Subcategory" style="whiteSpace=wrap;strokeWidth=2;" vertex="1" parent="1">
          <mxGeometry x="539" y="388" width="147" height="54" as="geometry" />
        </mxCell>
        <mxCell id="12" value="Session" style="whiteSpace=wrap;strokeWidth=2;" vertex="1" parent="1">
          <mxGeometry x="977" y="261" width="111" height="54" as="geometry" />
        </mxCell>
        <mxCell id="13" value="Permission" style="whiteSpace=wrap;strokeWidth=2;" vertex="1" parent="1">
          <mxGeometry x="791" y="261" width="136" height="54" as="geometry" />
        </mxCell>
        <mxCell id="14" value="Role" style="whiteSpace=wrap;strokeWidth=2;" vertex="1" parent="1">
          <mxGeometry x="755" y="388" width="91" height="54" as="geometry" />
        </mxCell>
        <mxCell id="15" value="UserActivity" style="whiteSpace=wrap;strokeWidth=2;" vertex="1" parent="1">
          <mxGeometry x="959" y="388" width="147" height="54" as="geometry" />
        </mxCell>
        <mxCell id="16" value="Action" style="whiteSpace=wrap;strokeWidth=2;" vertex="1" parent="1">
          <mxGeometry x="980" y="539" width="106" height="54" as="geometry" />
        </mxCell>
        <mxCell id="17" value="Login" style="whiteSpace=wrap;strokeWidth=2;" vertex="1" parent="1">
          <mxGeometry x="659" y="666" width="98" height="54" as="geometry" />
        </mxCell>
        <mxCell id="18" value="Logout" style="whiteSpace=wrap;strokeWidth=2;" vertex="1" parent="1">
          <mxGeometry x="807" y="666" width="108" height="54" as="geometry" />
        </mxCell>
        <mxCell id="19" value="PostCreation" style="whiteSpace=wrap;strokeWidth=2;" vertex="1" parent="1">
          <mxGeometry x="966" y="666" width="151" height="54" as="geometry" />
        </mxCell>
        <mxCell id="20" value="CommentCreation" style="whiteSpace=wrap;strokeWidth=2;" vertex="1" parent="1">
          <mxGeometry x="1167" y="666" width="190" height="54" as="geometry" />
        </mxCell>
        <mxCell id="21" value="creates" style="curved=1;startArrow=none;endArrow=block;exitX=0.01;exitY=0.67;entryX=0.5;entryY=-0.01;" edge="1" parent="1" source="3" target="4">
          <mxGeometry relative="1" as="geometry">
            <Array as="points">
              <mxPoint x="86" y="98" />
            </Array>
          </mxGeometry>
        </mxCell>
        <mxCell id="22" value="authenticates" style="curved=1;startArrow=none;endArrow=block;exitX=1;exitY=0.6;entryX=0.5;entryY=-0.01;" edge="1" parent="1" source="3" target="5">
          <mxGeometry relative="1" as="geometry">
            <Array as="points">
              <mxPoint x="946" y="98" />
            </Array>
          </mxGeometry>
        </mxCell>
        <mxCell id="23" value="has" style="curved=1;startArrow=none;endArrow=block;exitX=1;exitY=0.82;entryX=0.5;entryY=-0.01;" edge="1" parent="1" source="3" target="6">
          <mxGeometry relative="1" as="geometry">
            <Array as="points">
              <mxPoint x="568" y="98" />
            </Array>
          </mxGeometry>
        </mxCell>
        <mxCell id="24" value="has" style="curved=1;startArrow=none;endArrow=block;exitX=0.5;exitY=0.99;entryX=0.5;entryY=0;" edge="1" parent="1" source="4" target="7">
          <mxGeometry relative="1" as="geometry">
            <Array as="points" />
          </mxGeometry>
        </mxCell>
        <mxCell id="25" value="follows" style="curved=1;startArrow=none;endArrow=block;exitX=0.99;exitY=0.85;entryX=0.5;entryY=0;" edge="1" parent="1" source="4" target="8">
          <mxGeometry relative="1" as="geometry">
            <Array as="points">
              <mxPoint x="260" y="225" />
            </Array>
          </mxGeometry>
        </mxCell>
        <mxCell id="26" value="contains" style="curved=1;startArrow=none;endArrow=block;exitX=0.2;exitY=0.99;entryX=0.78;entryY=0;" edge="1" parent="1" source="6" target="9">
          <mxGeometry relative="1" as="geometry">
            <Array as="points">
              <mxPoint x="505" y="225" />
            </Array>
          </mxGeometry>
        </mxCell>
        <mxCell id="27" value="belongs to" style="curved=1;startArrow=none;endArrow=block;exitX=0.71;exitY=0.99;entryX=0.5;entryY=0;" edge="1" parent="1" source="6" target="10">
          <mxGeometry relative="1" as="geometry">
            <Array as="points">
              <mxPoint x="613" y="225" />
            </Array>
          </mxGeometry>
        </mxCell>
        <mxCell id="28" value="has" style="curved=1;startArrow=none;endArrow=block;exitX=0.5;exitY=1;entryX=0.5;entryY=-0.01;" edge="1" parent="1" source="10" target="11">
          <mxGeometry relative="1" as="geometry">
            <Array as="points" />
          </mxGeometry>
        </mxCell>
        <mxCell id="29" value="written by" style="curved=1;startArrow=none;endArrow=block;exitX=0.5;exitY=0;entryX=0.6;entryY=1;" edge="1" parent="1" source="9" target="3">
          <mxGeometry relative="1" as="geometry">
            <Array as="points">
              <mxPoint x="420" y="98" />
            </Array>
          </mxGeometry>
        </mxCell>
        <mxCell id="30" value="related to" style="curved=1;startArrow=none;endArrow=block;exitX=0.28;exitY=0;entryX=0;entryY=0.74;" edge="1" parent="1" source="9" target="6">
          <mxGeometry relative="1" as="geometry">
            <Array as="points">
              <mxPoint x="354" y="225" />
            </Array>
          </mxGeometry>
        </mxCell>
        <mxCell id="31" value="uses" style="curved=1;startArrow=none;endArrow=block;exitX=0.72;exitY=0.99;entryX=0.5;entryY=0;" edge="1" parent="1" source="5" target="12">
          <mxGeometry relative="1" as="geometry">
            <Array as="points">
              <mxPoint x="1033" y="225" />
            </Array>
          </mxGeometry>
        </mxCell>
        <mxCell id="32" value="is linked to" style="curved=1;startArrow=none;endArrow=block;exitX=0.28;exitY=0.99;entryX=0.5;entryY=0;" edge="1" parent="1" source="5" target="13">
          <mxGeometry relative="1" as="geometry">
            <Array as="points">
              <mxPoint x="859" y="225" />
            </Array>
          </mxGeometry>
        </mxCell>
        <mxCell id="33" value="grants" style="curved=1;startArrow=none;endArrow=block;exitX=0.5;exitY=1;entryX=0.77;entryY=-0.01;" edge="1" parent="1" source="13" target="14">
          <mxGeometry relative="1" as="geometry">
            <Array as="points">
              <mxPoint x="859" y="351" />
            </Array>
          </mxGeometry>
        </mxCell>
        <mxCell id="34" value="assigned to" style="curved=1;startArrow=none;endArrow=block;exitX=0.25;exitY=-0.01;entryX=1;entryY=0.65;" edge="1" parent="1" source="14" target="3">
          <mxGeometry relative="1" as="geometry">
            <Array as="points">
              <mxPoint x="748" y="351" />
              <mxPoint x="748" y="98" />
            </Array>
          </mxGeometry>
        </mxCell>
        <mxCell id="35" value="manages" style="curved=1;startArrow=none;endArrow=block;exitX=0.5;exitY=1;entryX=0.5;entryY=-0.01;" edge="1" parent="1" source="12" target="15">
          <mxGeometry relative="1" as="geometry">
            <Array as="points" />
          </mxGeometry>
        </mxCell>
        <mxCell id="36" value="tracks" style="curved=1;startArrow=none;endArrow=block;exitX=0.5;exitY=0.99;entryX=0.5;entryY=0;" edge="1" parent="1" source="15" target="16">
          <mxGeometry relative="1" as="geometry">
            <Array as="points" />
          </mxGeometry>
        </mxCell>
        <mxCell id="37" value="records" style="curved=1;startArrow=none;endArrow=block;exitX=0;exitY=0.69;entryX=0.5;entryY=-0.01;" edge="1" parent="1" source="16" target="17">
          <mxGeometry relative="1" as="geometry">
            <Array as="points">
              <mxPoint x="708" y="629" />
            </Array>
          </mxGeometry>
        </mxCell>
        <mxCell id="38" value="records" style="curved=1;startArrow=none;endArrow=block;exitX=0;exitY=0.86;entryX=0.51;entryY=-0.01;" edge="1" parent="1" source="16" target="18">
          <mxGeometry relative="1" as="geometry">
            <Array as="points">
              <mxPoint x="862" y="629" />
            </Array>
          </mxGeometry>
        </mxCell>
        <mxCell id="39" value="records" style="curved=1;startArrow=none;endArrow=block;exitX=0.53;exitY=1;entryX=0.5;entryY=-0.01;" edge="1" parent="1" source="16" target="19">
          <mxGeometry relative="1" as="geometry">
            <Array as="points">
              <mxPoint x="1041" y="629" />
            </Array>
          </mxGeometry>
        </mxCell>
        <mxCell id="40" value="records" style="curved=1;startArrow=none;endArrow=block;exitX=0.99;exitY=0.77;entryX=0.5;entryY=-0.01;" edge="1" parent="1" source="16" target="20">
          <mxGeometry relative="1" as="geometry">
            <Array as="points">
              <mxPoint x="1261" y="629" />
            </Array>
          </mxGeometry>
        </mxCell>
      </root>
    </mxGraphModel>
  </diagram>
</mxfile>
